<svg width="74" height="74" viewBox="0 0 74 74" fill="none" xmlns="http://www.w3.org/2000/svg">
<path d="M32.3751 0H41.6251V9.25H32.3751V0Z" fill="#FFE562"/>
<path d="M4.62512 41.625H32.3751V50.875H4.62512V41.625Z" fill="#7E7E7E"/>
<path d="M4.62512 69.375V60.125H69.375V69.375H4.62512Z" fill="#7E7E7E"/>
<path d="M69.375 41.625H41.6251V50.875H69.375V41.625Z" fill="#7E7E7E"/>
<path d="M6.92531 19.5283L4.53125 28.4632L13.4661 30.8572L15.8602 21.9224L6.92531 19.5283Z" fill="#FFE562"/>
<path d="M67.075 19.5283L69.4689 28.4631L60.5343 30.8572L58.14 21.9224L67.075 19.5283Z" fill="#FFE562"/>
<path d="M23.1251 32.375C23.1251 24.7121 29.3372 18.5 37.0001 18.5C44.6631 18.5 50.875 24.7121 50.875 32.375H23.1251Z" fill="#FFE562"/>
<path d="M53.0395 3.87463L60.378 9.50567L54.7471 16.8442L47.4086 11.2132L53.0395 3.87463Z" fill="#FFE562"/>
<path d="M20.9607 3.87476L13.6222 9.50581L19.2533 16.8443L26.5918 11.2133L20.9607 3.87476Z" fill="#FFE562"/>
</svg>
