<svg width="76" height="76" viewBox="0 0 76 76" fill="none" xmlns="http://www.w3.org/2000/svg">
<path d="M33.375 14.875V1H42.625V14.875H33.375Z" fill="#FFE562" stroke="#FFE562"/>
<path d="M42.625 61.125V75H33.375V61.125H42.625Z" fill="#FFE562" stroke="#FFE562"/>
<path d="M51.875 38C51.875 45.6629 45.6629 51.875 38 51.875C30.3371 51.875 24.125 45.6629 24.125 38C24.125 30.3371 30.3371 24.125 38 24.125C45.6629 24.125 51.875 30.3371 51.875 38Z" fill="#FFE562" stroke="#FFE562"/>
<path d="M1 42.625H14.875V33.375H1V42.625Z" fill="#FFE562" stroke="#FFE562"/>
<path d="M75 33.375H61.125V42.625H75V33.375Z" fill="#FFE562" stroke="#FFE562"/>
<path d="M18.3778 24.9185L8.56665 15.1074L15.1074 8.56665L24.9185 18.3778L18.3778 24.9185Z" fill="#FFE562" stroke="#FFE562"/>
<path d="M57.622 51.0813L67.4335 60.8923L60.8924 67.4335L51.0814 57.622L57.622 51.0813Z" fill="#FFE562" stroke="#FFE562"/>
<path d="M15.1074 67.4335L24.9185 57.622L18.3778 51.0813L8.56665 60.8928L15.1074 67.4335Z" fill="#FFE562" stroke="#FFE562"/>
<path d="M60.8924 8.56665L51.0814 18.3778L57.622 24.9185L67.4335 15.1074L60.8924 8.56665Z" fill="#FFE562" stroke="#FFE562"/>
</svg>
